<svg id="svg" version="1.1" width="400" height="392" xmlns="http://www.w3.org/2000/svg" xmlns:xlink="http://www.w3.org/1999/xlink" style="display: block;"><g id="svgg"><path id="path0" d="M192.044 1.577 C 180.166 6.730,170.413 22.093,157.579 55.869 C 152.097 70.294,150.134 76.139,146.368 89.250 C 145.912 90.838,145.572 90.780,142.683 88.618 C 124.079 74.697,105.284 81.225,87.953 107.626 C 64.991 142.603,34.117 234.210,14.859 324.500 C 8.061 356.373,1.000 390.323,1.000 391.133 C 1.000 393.058,147.813 392.178,148.375 390.250 C 148.656 389.287,150.302 383.550,152.033 377.500 C 166.032 328.577,189.823 302.615,210.601 313.587 C 226.031 321.735,242.685 351.579,251.984 387.750 L 253.077 392.000 326.606 392.000 C 396.160 392.000,400.107 391.905,399.628 390.250 C 399.350 389.287,397.480 379.500,395.474 368.500 C 372.819 244.311,345.160 156.300,322.899 137.568 C 308.190 125.192,290.961 129.651,276.290 149.632 C 270.441 157.598,270.636 157.645,268.550 147.750 C 261.977 116.566,249.545 72.642,240.380 48.226 C 225.607 8.865,209.989 -6.207,192.044 1.577 M204.236 47.231 C 213.722 67.321,227.638 116.572,241.385 178.713 C 245.496 197.296,250.495 220.600,252.493 230.500 C 256.909 252.382,261.869 275.202,262.303 275.636 C 262.478 275.811,263.643 272.702,264.892 268.727 C 282.705 212.041,292.495 185.775,300.377 173.524 L 304.532 167.067 307.169 171.784 C 321.431 197.288,343.421 272.629,355.976 339.000 C 357.692 348.075,359.330 356.287,359.616 357.250 C 360.104 358.897,357.720 359.000,319.268 359.000 L 278.401 359.000 274.061 348.250 C 235.200 252.003,160.016 253.521,125.479 351.250 L 122.741 359.000 82.370 359.000 C 59.384 359.000,42.000 358.616,42.000 358.108 C 42.000 351.888,58.950 281.160,67.549 251.500 C 70.100 242.700,73.020 232.575,74.037 229.000 C 81.450 202.958,101.015 151.895,109.181 137.273 C 114.139 128.397,120.498 118.647,122.300 117.159 C 124.655 115.214,130.035 124.154,144.014 153.246 C 150.728 167.216,155.714 176.475,156.127 175.738 C 156.513 175.048,159.159 165.938,162.008 155.492 C 177.566 98.438,186.890 69.580,196.842 47.674 C 200.352 39.948,200.785 39.922,204.236 47.231 " stroke="none" fill="#ffffff" fill-rule="evenodd"></path></g></svg>
