<?xml version="1.0" standalone="no"?>
<!DOCTYPE svg PUBLIC "-//W3C//DTD SVG 20010904//EN"
 "http://www.w3.org/TR/2001/REC-SVG-20010904/DTD/svg10.dtd">
<svg version="1.0" xmlns="http://www.w3.org/2000/svg"
 width="1196.000000pt" height="512.000000pt" viewBox="0 0 1196.000000 512.000000"
 preserveAspectRatio="xMidYMid meet">
<metadata>
Created by potrace 1.14, written by Peter Selinger 2001-2017
</metadata>
<g transform="translate(0.000000,512.000000) scale(0.100000,-0.100000)"
fill="#000000" stroke="none">
<path d="M4828 5013 c-9 -10 -123 -193 -253 -408 -131 -214 -246 -402 -256
-417 -11 -14 -19 -34 -19 -45 0 -10 283 -311 686 -728 908 -940 904 -935 919
-935 16 0 61 46 895 920 365 382 670 699 677 703 7 4 13 19 13 33 0 23 -484
834 -524 877 -15 16 -79 17 -1069 17 -991 0 -1055 -1 -1069 -17z m976 -95
c-39 -69 -420 -678 -424 -678 -5 1 -421 663 -428 681 -2 5 179 9 428 9 342 0
430 -3 424 -12z m958 -131 c-225 -369 -337 -547 -342 -547 -4 1 -326 513 -409
651 l-23 39 431 0 431 0 -88 -143z m-1682 -250 c116 -187 210 -341 207 -343
-2 -2 -196 -3 -430 -2 l-426 3 135 220 c74 121 169 277 211 347 43 70 80 124
84 120 4 -4 102 -159 219 -345z m2074 -1 c114 -186 205 -340 203 -342 -2 -2
-194 -3 -425 -2 l-422 3 78 127 c290 474 348 565 353 560 4 -4 100 -159 213
-346z m-1034 0 c116 -186 209 -340 207 -342 -2 -2 -196 -3 -430 -2 l-427 3
108 175 c60 96 155 250 212 343 57 92 107 166 112 165 4 -2 102 -155 218 -342z
m-772 -448 c5 -7 48 -132 95 -278 47 -146 140 -434 207 -640 67 -206 129 -395
136 -420 l14 -45 -68 70 c-216 219 -1272 1315 -1272 1320 0 3 197 5 439 5 339
0 441 -3 449 -12z m1005 5 c3 -6 -410 -1309 -444 -1401 -2 -7 -65 173 -138
400 -74 227 -176 542 -228 700 -51 158 -93 292 -93 298 0 12 897 14 903 3z
m885 -102 c-364 -386 -1213 -1269 -1216 -1266 -2 2 87 288 198 637 111 348
209 654 217 681 l14 47 440 0 441 0 -94 -99z"/>
<path d="M2880 1356 l0 -245 -53 53 c-170 170 -487 123 -613 -91 -83 -141 -69
-387 30 -516 76 -99 183 -150 316 -150 131 0 239 48 295 131 l25 37 0 -83 0
-82 75 0 75 0 0 595 0 595 -75 0 -75 0 0 -244z m-167 -248 c175 -75 223 -330
90 -478 -61 -68 -117 -93 -208 -93 -158 -1 -271 107 -283 273 -16 233 191 387
401 298z"/>
<path d="M9590 1005 l0 -595 75 0 75 0 0 120 0 121 83 85 82 85 135 -205 135
-206 89 0 c72 0 87 3 83 14 -3 8 -78 123 -166 255 -89 132 -161 246 -161 252
0 6 69 81 152 167 l153 157 -90 3 -90 3 -193 -201 c-107 -110 -198 -200 -203
-200 -5 0 -9 155 -9 370 l0 370 -75 0 -75 0 0 -595z"/>
<path d="M80 970 l0 -560 269 0 c356 0 438 16 536 102 54 47 78 101 83 188 8
139 -59 245 -180 286 l-50 16 38 18 c99 44 144 117 144 233 0 134 -64 215
-202 259 -52 16 -96 18 -349 18 l-289 0 0 -560z m565 409 c22 -6 56 -28 77
-49 35 -35 38 -42 38 -97 0 -70 -24 -115 -80 -147 -32 -19 -55 -21 -242 -24
l-208 -3 0 165 0 166 188 0 c105 0 204 -5 227 -11z m60 -494 c76 -38 105 -79
105 -149 0 -38 -6 -61 -25 -89 -52 -76 -147 -99 -390 -95 l-160 3 -3 170 c-1
93 0 176 3 183 4 12 42 13 208 11 201 -4 202 -4 262 -34z"/>
<path d="M6220 1460 l0 -70 180 0 180 0 0 -490 0 -490 75 0 75 0 0 490 0 490
180 0 180 0 0 70 0 70 -435 0 -435 0 0 -70z"/>
<path d="M5320 1345 l0 -115 -60 0 -60 0 0 -55 0 -55 59 0 60 0 3 -282 c3
-272 4 -285 26 -325 12 -24 41 -55 64 -70 73 -49 238 -42 315 12 l21 15 -20
55 c-12 30 -25 55 -30 55 -5 0 -22 -7 -38 -15 -42 -22 -112 -23 -143 -2 -41
27 -48 73 -45 324 l3 228 128 3 127 3 0 54 0 55 -130 0 -130 0 0 115 0 115
-75 0 -75 0 0 -115z"/>
<path d="M7575 1260 c-98 -15 -168 -57 -215 -128 l-30 -45 0 86 0 87 -75 0
-75 0 0 -425 0 -425 75 0 75 0 0 233 c0 284 6 313 83 392 53 54 121 85 189 85
l28 0 0 75 c0 41 -1 74 -2 74 -2 -1 -25 -5 -53 -9z"/>
<path d="M8010 1259 c-76 -6 -124 -21 -200 -60 -88 -45 -85 -40 -50 -98 18
-29 35 -50 39 -49 111 60 165 79 227 85 118 9 189 -23 225 -101 10 -23 19 -60
19 -83 l0 -41 -198 -4 c-198 -3 -199 -3 -257 -33 -71 -36 -110 -88 -127 -165
-21 -105 35 -219 136 -273 36 -19 57 -22 161 -22 104 0 127 3 170 23 28 13 65
37 83 54 l32 32 0 -57 0 -57 76 0 75 0 -3 323 -3 322 -28 57 c-57 116 -181
165 -377 147z m260 -509 c0 -117 -90 -202 -230 -216 -73 -8 -136 10 -177 51
-29 29 -33 40 -33 83 0 104 59 130 293 131 l147 1 0 -50z"/>
<path d="M8946 1258 c-163 -21 -300 -150 -335 -316 -39 -187 31 -380 171 -468
162 -102 430 -80 553 46 l39 40 -39 40 c-21 22 -43 40 -48 40 -5 0 -27 -15
-49 -34 -78 -67 -241 -86 -335 -38 -57 30 -120 105 -138 165 -61 204 70 397
270 397 71 0 146 -24 199 -65 l44 -34 41 52 41 52 -41 37 c-22 20 -66 47 -97
59 -67 25 -192 37 -276 27z"/>
<path d="M1172 953 c4 -290 5 -311 26 -364 29 -73 98 -140 171 -164 38 -12 75
-16 139 -13 114 4 207 46 255 115 l32 45 3 -81 3 -81 74 0 75 0 0 425 0 425
-74 0 -75 0 -3 -257 -3 -258 -27 -51 c-54 -102 -145 -152 -255 -141 -72 8
-130 46 -160 107 -22 43 -23 54 -23 322 l0 278 -81 0 -81 0 4 -307z"/>
<path d="M3477 1236 c-151 -62 -228 -186 -229 -371 -1 -187 73 -315 221 -383
48 -22 70 -26 156 -26 89 -1 106 2 160 27 34 16 78 48 104 75 l44 47 -6 -91
c-6 -105 -21 -146 -71 -202 -99 -109 -312 -115 -454 -12 l-41 29 -31 -54 c-17
-30 -29 -59 -26 -64 11 -17 101 -63 173 -87 56 -19 92 -24 166 -24 200 0 348
86 409 239 22 55 23 66 26 489 l3 432 -75 0 -76 0 0 -71 0 -71 -58 54 c-74 68
-132 88 -251 88 -67 0 -99 -6 -144 -24z m264 -107 c47 -16 107 -61 134 -101
80 -119 61 -297 -43 -388 -69 -61 -156 -82 -245 -59 -213 53 -270 369 -91 505
66 51 168 68 245 43z"/>
<path d="M4555 1247 c-183 -61 -285 -208 -285 -412 0 -257 168 -425 423 -425
128 0 231 35 312 104 l40 35 -42 42 -41 42 -61 -41 c-127 -85 -282 -82 -384 8
-44 39 -79 96 -92 153 l-7 27 336 0 336 0 0 58 c-1 133 -46 255 -122 329 -70
68 -123 87 -258 90 -75 2 -129 -2 -155 -10z m261 -135 c74 -38 134 -128 134
-201 0 -21 -1 -21 -265 -21 -213 0 -265 3 -265 13 0 7 8 35 17 62 21 62 93
136 154 158 61 23 170 17 225 -11z"/>
<path d="M10663 1240 c-206 -73 -312 -287 -258 -519 31 -130 102 -217 223
-274 118 -55 294 -49 420 13 32 16 71 43 87 60 l29 30 -40 41 -40 40 -53 -35
c-132 -89 -286 -86 -399 9 -34 29 -82 117 -82 152 l0 23 330 0 330 0 0 73 c0
194 -90 342 -238 387 -85 27 -235 26 -309 0z m252 -117 c69 -23 130 -87 150
-157 9 -31 14 -60 10 -66 -7 -11 -517 -15 -528 -4 -10 10 20 94 47 132 67 96
202 136 321 95z"/>
<path d="M11420 835 l0 -425 75 0 75 0 0 238 c0 130 5 254 10 274 29 102 127
184 234 195 l56 6 0 70 0 70 -59 -6 c-92 -8 -177 -61 -228 -143 -10 -16 -12
-4 -12 64 l-1 82 -75 0 -75 0 0 -425z"/>
</g>
</svg>
